<svg width="720" height="170" viewBox="0 0 720 170" fill="none" xmlns="http://www.w3.org/2000/svg">
<g clip-path="url(#clip0_243_168)">
<path d="M54.7507 165.825C47.2715 165.825 41.2926 163.609 36.8588 159.152C32.4026 154.696 30.1857 148.65 30.1857 141.014V72.4693H0V50.2332H30.1857V13.0161H57.102V50.2108H90.3331V72.447H57.102V136.558C57.102 141.238 59.2965 143.589 63.6631 143.589H86.8398V165.825H54.7507Z" fill="white"/>
<path d="M142.262 167.707C133.372 167.707 125.49 165.714 118.638 161.75C111.763 157.764 106.478 152.166 102.716 144.911C98.9767 137.655 97.0957 129.191 97.0957 119.517V50.2334H123.766V117.39C123.766 126.75 126.072 133.692 130.663 138.215C135.253 142.739 141.77 145 150.212 145C159.729 145 167.253 141.888 172.784 135.64C178.315 129.392 181.092 120.435 181.092 108.724V50.2334H207.762V165.826H181.562V149.68H177.576C175.538 153.89 171.843 157.943 166.469 161.84C161.095 165.759 153.033 167.707 142.262 167.707Z" fill="white"/>
<path d="M269.566 169.095C260.206 169.095 251.473 166.788 243.366 162.198C235.26 157.607 228.788 150.845 223.952 141.955C219.115 133.065 216.696 122.383 216.696 109.888V106.148C216.696 93.6755 219.115 82.9717 223.952 74.0817C228.788 65.1917 235.215 58.4514 243.254 53.8385C251.293 49.2479 260.071 46.9415 269.588 46.9415C276.754 46.9415 282.845 47.7924 287.839 49.5167C292.832 51.2409 296.841 53.413 299.886 56.0778C302.931 58.7425 305.305 61.6088 307.029 64.7438H311.015V2.02124H337.685V165.826H311.486V150.621H307.5C304.701 155.301 300.401 159.556 294.624 163.362C288.824 167.192 280.471 169.095 269.566 169.095ZM277.515 145.694C287.189 145.694 295.228 142.537 301.61 136.222C308.015 129.907 311.194 120.905 311.194 109.194V106.843C311.194 94.9967 308.037 85.95 301.722 79.7023C295.407 73.4547 287.324 70.3421 277.493 70.3421C267.819 70.3421 259.758 73.4547 253.286 79.7023C246.815 85.95 243.568 94.9967 243.568 106.843V109.194C243.568 120.883 246.792 129.907 253.286 136.222C259.78 142.537 267.842 145.694 277.515 145.694Z" fill="white"/>
<path d="M365.498 35.4763C360.661 35.4763 356.496 33.8864 352.98 30.6842C349.464 27.482 347.718 23.2274 347.718 17.9203C347.718 12.6131 349.464 8.35848 352.98 5.17869C356.496 1.99889 360.661 0.386597 365.498 0.386597C370.648 0.386597 374.903 1.99889 378.239 5.17869C381.598 8.38087 383.278 12.6355 383.278 17.9203C383.278 23.2274 381.598 27.482 378.239 30.6842C374.903 33.8864 370.648 35.4763 365.498 35.4763ZM352.174 165.826V50.2333H379.09V165.826H352.174Z" fill="#FCD731"/>
<path d="M448.328 169.095C436.774 169.095 426.45 166.722 417.314 161.952C408.178 157.205 401.012 150.42 395.795 141.597C390.577 132.774 387.957 122.204 387.957 109.888V106.149C387.957 93.8326 390.577 83.2183 395.795 74.3283C401.012 65.4383 408.2 58.6533 417.314 53.9732C426.45 49.293 436.774 46.9418 448.328 46.9418C459.861 46.9418 470.161 49.293 479.208 53.9732C488.255 58.6533 495.398 65.4383 500.616 74.3283C505.833 83.2183 508.453 93.8326 508.453 106.149V109.888C508.453 122.204 505.833 132.774 500.616 141.597C495.376 150.42 488.255 157.205 479.208 161.952C470.184 166.722 459.883 169.095 448.328 169.095ZM448.328 145.224C458.159 145.224 466.198 142.067 472.423 135.752C478.648 129.437 481.783 120.592 481.783 109.194V106.843C481.783 95.4673 478.648 86.5997 472.423 80.2848C466.176 73.97 458.159 70.8126 448.328 70.8126C438.498 70.8126 430.459 73.97 424.234 80.2848C417.986 86.5997 414.873 95.4673 414.873 106.843V109.194C414.873 120.592 417.986 129.437 424.234 135.752C430.459 142.067 438.498 145.224 448.328 145.224Z" fill="white"/>
<path d="M550.239 121.018H547.417V135.036H544.26V121.018H541.954V118.106H544.26V112.441H547.417V118.106H550.239V121.018Z" fill="white"/>
<path d="M566.026 124.421V135.036H562.868V125.474C562.868 122.204 561.503 120.57 558.748 120.57C557.36 120.57 556.263 121.018 555.456 121.891C554.65 122.764 554.225 123.973 554.225 125.474V135.036H551.067V112.441H554.225V119.831C555.344 118.375 556.979 117.659 559.106 117.659C561.189 117.659 562.846 118.286 564.122 119.495C565.399 120.726 566.026 122.383 566.026 124.421Z" fill="white"/>
<path d="M580.872 129.706H584.052C583.425 131.475 582.373 132.864 580.895 133.916C579.417 134.946 577.782 135.484 575.946 135.484C573.572 135.484 571.535 134.61 569.855 132.864C568.153 131.117 567.325 129.012 567.325 126.549C567.325 124.063 568.176 121.936 569.855 120.189C571.557 118.42 573.595 117.547 576.013 117.547C578.364 117.547 580.38 118.42 582.059 120.144C583.739 121.869 584.59 123.951 584.59 126.37C584.59 126.728 584.567 127.265 584.5 128.004H570.504C570.84 129.393 571.512 130.512 572.52 131.363C573.528 132.214 574.714 132.617 576.103 132.617C578.163 132.55 579.753 131.61 580.872 129.706ZM571.826 122.272C571.154 123.033 570.706 124.13 570.504 125.519H581.455C581.387 124.13 580.828 122.921 579.753 121.936C578.678 120.951 577.424 120.436 576.013 120.436C574.289 120.436 572.901 121.04 571.826 122.272Z" fill="white"/>
<path d="M592.718 128.497V118.106H595.876V127.287C595.876 128.9 596.122 130.087 596.592 130.826C597.309 131.968 598.496 132.55 600.13 132.55C601.519 132.55 602.594 132.08 603.377 131.139C604.161 130.199 604.542 128.922 604.542 127.265V118.084H607.699V135.013H604.743V133.222C603.758 134.722 602.078 135.461 599.772 135.461C597.645 135.461 595.943 134.812 594.644 133.535C593.368 132.259 592.718 130.579 592.718 128.497Z" fill="white"/>
<path d="M625.031 124.623V135.013H621.874V125.81C621.874 124.198 621.628 123.011 621.158 122.272C620.441 121.13 619.254 120.548 617.619 120.548C616.231 120.548 615.156 121.018 614.395 121.958C613.633 122.899 613.23 124.175 613.23 125.832V135.036H610.006V118.107H612.962V119.898C614.081 118.398 615.761 117.659 617.978 117.659C620.083 117.659 621.785 118.308 623.083 119.585C624.382 120.861 625.031 122.563 625.031 124.623Z" fill="white"/>
<path d="M627.271 112.441H630.428V116.158H627.271V112.441ZM627.271 118.106H630.428V135.036H627.271V118.106Z" fill="white"/>
<path d="M635.735 132.617V135.013H632.779V112.441H635.937V120.502C637.347 118.554 639.296 117.591 641.804 117.591C644.2 117.591 646.26 118.487 647.984 120.256C649.708 122.025 650.559 124.153 650.559 126.616C650.559 129.101 649.708 131.206 648.029 132.908C646.349 134.61 644.267 135.483 641.804 135.483C639.161 135.483 637.124 134.52 635.735 132.617ZM641.692 120.458C640.057 120.458 638.691 121.04 637.571 122.227C636.452 123.414 635.892 124.847 635.892 126.571C635.892 128.228 636.452 129.661 637.571 130.803C638.691 131.968 640.057 132.55 641.669 132.55C643.259 132.55 644.625 131.968 645.745 130.781C646.887 129.594 647.447 128.183 647.447 126.549C647.447 124.869 646.887 123.414 645.767 122.249C644.625 121.062 643.282 120.458 641.692 120.458Z" fill="white"/>
<path d="M664.6 129.706H667.779C667.152 131.475 666.1 132.864 664.622 133.916C663.144 134.946 661.509 135.484 659.673 135.484C657.299 135.484 655.262 134.61 653.582 132.864C651.88 131.117 651.052 129.012 651.052 126.549C651.052 124.063 651.903 121.936 653.582 120.189C655.284 118.42 657.322 117.547 659.74 117.547C662.091 117.547 664.107 118.42 665.786 120.144C667.466 121.869 668.317 123.951 668.317 126.37C668.317 126.728 668.294 127.265 668.227 128.004H654.232C654.567 129.393 655.239 130.512 656.247 131.363C657.255 132.214 658.441 132.617 659.83 132.617C661.912 132.55 663.502 131.61 664.6 129.706ZM655.553 122.272C654.881 123.033 654.433 124.13 654.232 125.519H665.182C665.115 124.13 664.555 122.921 663.48 121.936C662.405 120.951 661.151 120.436 659.74 120.436C658.038 120.436 656.65 121.04 655.553 122.272Z" fill="white"/>
<path d="M684.753 124.623V135.013H681.596V125.81C681.596 124.198 681.349 123.011 680.879 122.272C680.163 121.13 678.976 120.548 677.341 120.548C675.953 120.548 674.878 121.018 674.117 121.958C673.355 122.899 672.952 124.175 672.952 125.832V135.036H669.728V118.107H672.683V119.898C673.803 118.398 675.483 117.659 677.699 117.659C679.804 117.659 681.506 118.308 682.805 119.585C684.104 120.861 684.753 122.563 684.753 124.623Z" fill="white"/>
<path d="M560.652 138.036V160.63H557.696V158.234C556.173 160.138 554.158 161.078 551.627 161.078C549.142 161.078 547.059 160.227 545.402 158.503C543.723 156.779 542.894 154.651 542.894 152.076C542.894 149.613 543.723 147.53 545.357 145.829C546.992 144.127 548.985 143.276 551.336 143.276C552.545 143.276 553.71 143.522 554.852 144.015C555.994 144.507 556.89 145.157 557.494 145.941V138.058H560.652V138.036ZM551.806 158.167C553.486 158.167 554.874 157.563 556.016 156.376C557.158 155.189 557.718 153.711 557.718 151.92C557.718 150.307 557.158 148.941 556.016 147.822C554.874 146.702 553.463 146.142 551.806 146.142C550.172 146.142 548.828 146.702 547.731 147.844C546.634 148.986 546.096 150.397 546.096 152.099C546.096 153.778 546.656 155.211 547.776 156.376C548.828 157.563 550.194 158.167 551.806 158.167Z" fill="white"/>
<path d="M575.588 155.301H578.768C578.141 157.07 577.088 158.458 575.61 159.511C574.132 160.541 572.498 161.078 570.661 161.078C568.288 161.078 566.25 160.205 564.57 158.458C562.869 156.712 562.04 154.607 562.04 152.143C562.04 149.658 562.891 147.53 564.57 145.784C566.272 144.015 568.31 143.141 570.728 143.141C573.08 143.141 575.095 144.015 576.775 145.739C578.454 147.463 579.305 149.546 579.305 151.964C579.305 152.323 579.283 152.86 579.215 153.599H565.22C565.556 154.987 566.227 156.107 567.235 156.958C568.243 157.809 569.43 158.212 570.818 158.212C572.878 158.167 574.468 157.204 575.588 155.301ZM566.541 147.866C565.869 148.628 565.421 149.725 565.22 151.113H576.17C576.103 149.725 575.543 148.516 574.468 147.53C573.393 146.545 572.139 146.03 570.728 146.03C569.004 146.03 567.616 146.635 566.541 147.866Z" fill="white"/>
<path d="M585.53 143.254C587.031 143.254 588.262 143.724 589.225 144.642C590.188 145.56 590.703 146.747 590.726 148.203H587.568C587.367 146.837 586.65 146.165 585.463 146.165C584.859 146.165 584.344 146.344 583.941 146.68C583.537 147.038 583.336 147.464 583.336 147.979C583.336 148.539 583.515 148.964 583.873 149.255C584.232 149.524 584.926 149.837 586.001 150.151C587.792 150.688 589.091 151.427 589.897 152.39C590.703 153.353 591.106 154.428 591.106 155.659C591.106 157.16 590.524 158.414 589.382 159.489C588.24 160.541 586.852 161.079 585.239 161.079C583.515 161.079 582.149 160.541 581.097 159.444C580.044 158.347 579.507 156.913 579.462 155.1H582.642C582.776 157.137 583.694 158.145 585.418 158.145C586.157 158.145 586.784 157.944 587.255 157.54C587.725 157.137 587.971 156.6 587.971 155.951C587.971 155.301 587.77 154.786 587.344 154.405C586.919 154.025 586.135 153.666 584.993 153.286C583.224 152.726 581.992 152.032 581.276 151.248C580.559 150.442 580.201 149.524 580.201 148.494C580.201 146.993 580.716 145.739 581.724 144.732C582.731 143.746 584.008 143.254 585.53 143.254Z" fill="white"/>
<path d="M592.562 138.036H595.719V141.753H592.562V138.036ZM592.562 143.701H595.719V160.63H592.562V143.701Z" fill="white"/>
<path d="M612.335 143.702H615.291V158.75C615.291 161.28 614.417 163.34 612.671 164.93C610.924 166.52 608.685 167.326 605.953 167.326C603.579 167.326 601.519 166.498 599.75 164.863C598.899 164.079 598.205 163.116 597.712 161.974H601.273C602.482 163.609 604.094 164.415 606.132 164.415C607.923 164.415 609.356 163.9 610.454 162.848C611.551 161.795 612.111 160.429 612.111 158.727V158.347C610.476 160.183 608.506 161.079 606.177 161.079C603.736 161.079 601.608 160.183 599.839 158.414C598.048 156.645 597.152 154.54 597.152 152.099C597.152 149.636 598.048 147.553 599.817 145.829C601.586 144.105 603.736 143.254 606.266 143.254C608.797 143.254 610.812 144.082 612.335 145.762V143.702ZM606.177 158.167C607.879 158.167 609.289 157.563 610.431 156.331C611.573 155.1 612.133 153.644 612.133 151.942C612.133 150.352 611.551 148.986 610.409 147.867C609.267 146.747 607.856 146.187 606.199 146.187C604.564 146.187 603.176 146.769 602.034 147.934C600.892 149.098 600.31 150.509 600.31 152.166C600.31 153.801 600.892 155.212 602.034 156.398C603.198 157.563 604.564 158.167 606.177 158.167Z" fill="white"/>
<path d="M632.622 150.24V160.631H629.465V151.427C629.465 149.815 629.219 148.628 628.748 147.889C628.032 146.747 626.845 146.165 625.21 146.165C623.822 146.165 622.747 146.635 621.986 147.576C621.224 148.516 620.821 149.793 620.821 151.45V160.653H617.597V143.702H620.553V145.493C621.672 143.993 623.352 143.254 625.569 143.254C627.673 143.254 629.375 143.903 630.674 145.18C631.973 146.456 632.622 148.158 632.622 150.24Z" fill="white"/>
<path d="M646.439 143.254C647.939 143.254 649.171 143.724 650.134 144.642C651.097 145.56 651.612 146.747 651.634 148.203H648.477C648.275 146.837 647.559 146.165 646.372 146.165C645.767 146.165 645.252 146.344 644.849 146.68C644.446 147.038 644.245 147.464 644.245 147.979C644.245 148.539 644.424 148.964 644.782 149.255C645.14 149.524 645.835 149.837 646.909 150.151C648.701 150.688 650 151.427 650.806 152.39C651.612 153.353 652.015 154.428 652.015 155.659C652.015 157.16 651.433 158.414 650.291 159.489C649.149 160.541 647.76 161.079 646.148 161.079C644.424 161.079 643.058 160.541 642.005 159.444C640.953 158.347 640.415 156.913 640.371 155.1H643.55C643.685 157.137 644.603 158.145 646.327 158.145C647.066 158.145 647.693 157.944 648.163 157.54C648.634 157.137 648.88 156.6 648.88 155.951C648.88 155.301 648.678 154.786 648.253 154.405C647.827 154.025 647.044 153.666 645.902 153.286C644.133 152.726 642.901 152.032 642.184 151.248C641.468 150.442 641.11 149.524 641.11 148.494C641.11 146.993 641.625 145.739 642.632 144.732C643.64 143.746 644.916 143.254 646.439 143.254Z" fill="white"/>
<path d="M659.897 146.612H657.075V160.63H653.918V146.612H651.634V143.701H653.94V138.036H657.098V143.701H659.919V146.612H659.897Z" fill="white"/>
<path d="M660.681 154.092V143.701H663.838V152.883C663.838 154.495 664.084 155.682 664.555 156.421C665.271 157.563 666.458 158.145 668.093 158.145C669.481 158.145 670.556 157.675 671.34 156.734C672.123 155.794 672.504 154.517 672.504 152.86V143.701H675.662V160.63H672.706V158.839C671.72 160.339 670.041 161.078 667.734 161.078C665.607 161.078 663.905 160.429 662.606 159.153C661.33 157.854 660.681 156.174 660.681 154.092Z" fill="white"/>
<path d="M694.83 138.036V160.63H691.875V158.234C690.352 160.138 688.336 161.078 685.806 161.078C683.32 161.078 681.238 160.227 679.581 158.503C677.901 156.779 677.073 154.651 677.073 152.076C677.073 149.613 677.901 147.53 679.536 145.829C681.171 144.127 683.164 143.276 685.515 143.276C686.724 143.276 687.889 143.522 689.031 144.015C690.173 144.507 691.068 145.157 691.673 145.941V138.058H694.83V138.036ZM685.985 158.167C687.665 158.167 689.053 157.563 690.195 156.376C691.337 155.189 691.897 153.711 691.897 151.92C691.897 150.307 691.337 148.941 690.195 147.822C689.053 146.702 687.642 146.142 685.985 146.142C684.35 146.142 683.007 146.702 681.91 147.844C680.812 148.986 680.275 150.397 680.275 152.099C680.275 153.778 680.835 155.211 681.954 156.376C683.007 157.563 684.373 158.167 685.985 158.167Z" fill="white"/>
<path d="M697.159 138.036H700.317V141.753H697.159V138.036ZM697.159 143.701H700.317V160.63H697.159V143.701Z" fill="white"/>
<path d="M710.841 143.254C713.371 143.254 715.521 144.105 717.313 145.829C719.104 147.553 719.977 149.613 719.977 152.054C719.977 154.54 719.082 156.667 717.313 158.414C715.521 160.183 713.371 161.056 710.841 161.056C708.333 161.056 706.183 160.183 704.392 158.414C702.6 156.645 701.727 154.54 701.727 152.054C701.727 149.613 702.623 147.531 704.392 145.829C706.183 144.105 708.333 143.254 710.841 143.254ZM710.863 158.167C712.52 158.167 713.931 157.585 715.096 156.398C716.26 155.212 716.842 153.801 716.842 152.144C716.842 150.509 716.26 149.098 715.096 147.934C713.931 146.769 712.52 146.187 710.863 146.187C709.206 146.187 707.796 146.769 706.631 147.934C705.467 149.098 704.884 150.509 704.884 152.144C704.884 153.801 705.467 155.234 706.631 156.398C707.796 157.563 709.206 158.167 710.863 158.167Z" fill="white"/>
<path d="M518.889 36.932C512.306 36.932 506.954 31.5801 506.954 24.9966C506.954 18.4131 512.306 13.0612 518.889 13.0612C525.473 13.0612 530.824 18.4131 530.824 24.9966C530.824 31.5801 525.473 36.932 518.889 36.932ZM518.889 14.6511C513.179 14.6511 508.544 19.2864 508.544 24.9966C508.544 30.7068 513.179 35.3421 518.889 35.3421C524.599 35.3421 529.235 30.7068 529.235 24.9966C529.257 19.2864 524.599 14.6511 518.889 14.6511Z" fill="white"/>
<path d="M522.293 26.9895H524.711C524.286 28.2659 523.547 29.2736 522.517 30.0125C521.487 30.7515 520.322 31.1322 518.979 31.1322C517.299 31.1322 515.888 30.55 514.746 29.3631C513.604 28.1763 513.044 26.7208 513.044 24.9965C513.044 23.2947 513.627 21.8391 514.769 20.6747C515.911 19.4879 517.344 18.9056 519.023 18.9056C520.367 18.9056 521.554 19.3087 522.629 20.0925C523.703 20.8986 524.398 21.8839 524.689 23.0707H522.27C521.464 21.6152 520.389 20.8762 519.023 20.8762C517.926 20.8762 517.008 21.2569 516.291 22.0406C515.575 22.8244 515.217 23.7873 515.217 24.9741C515.217 26.0938 515.575 27.0791 516.314 27.8852C517.053 28.7137 517.926 29.1168 518.956 29.1168C519.65 29.1168 520.3 28.9153 520.904 28.5346C521.531 28.1539 522.002 27.6389 522.293 26.9895Z" fill="white"/>
</g>
<defs>
<clipPath id="clip0_243_168">
<rect width="720" height="168.708" fill="white" transform="translate(0 0.386719)"/>
</clipPath>
</defs>
</svg>
