<svg width="184" height="61" viewBox="0 0 184 61" fill="none" xmlns="http://www.w3.org/2000/svg">
<rect width="184" height="61" fill="#1E1E1E"/>
<g clip-path="url(#clip0_0_1)">
<rect width="1728" height="2171" transform="translate(-123 -68)" fill="white"/>
<g clip-path="url(#clip1_0_1)">
<path opacity="0.9" d="M19.652 60.5688C16.9675 60.5688 14.8214 59.7731 13.2299 58.1736C11.6305 56.5741 10.8347 54.4039 10.8347 51.6631V27.0599H0V19.0785H10.8347V5.71997H20.496V19.0705H32.4238V27.0519H20.496V50.0636C20.496 51.7435 21.2837 52.5874 22.851 52.5874H31.17V60.5688H19.652Z" fill="#2D4DE9"/>
<path opacity="0.9" d="M51.6357 60.569C48.4448 60.569 45.6156 59.8537 43.156 58.431C40.6885 57.0003 38.7916 54.9909 37.4413 52.3867C36.099 49.7825 35.4238 46.7443 35.4238 43.272V18.4036H44.9967V42.5084C44.9967 45.8682 45.8245 48.3598 47.4722 49.9834C49.12 51.607 51.4589 52.4188 54.4891 52.4188C57.9051 52.4188 60.6057 51.3016 62.591 49.0591C64.5763 46.8166 65.573 43.6016 65.573 39.3979V18.4036H75.1458V59.8938H65.7418V54.0987H64.3111C63.5797 55.6098 62.2535 57.0646 60.3244 58.4631C58.3954 59.8697 55.5018 60.569 51.6357 60.569Z" fill="#2D4DE9"/>
<path opacity="0.9" d="M97.1229 60.5689C93.7631 60.5689 90.6284 59.741 87.7188 58.0933C84.8092 56.4456 82.4863 54.0182 80.7502 50.8273C79.0141 47.6363 78.146 43.8024 78.146 39.3174V37.9751C78.146 33.4981 79.0141 29.6562 80.7502 26.4652C82.4863 23.2743 84.7931 20.8549 87.6786 19.1992C90.5641 17.5515 93.7149 16.7236 97.1309 16.7236C99.7029 16.7236 101.889 17.029 103.682 17.6479C105.474 18.2668 106.913 19.0465 108.006 20.003C109.099 20.9594 109.951 21.9882 110.57 23.1135H112.001V0.600098H121.573V59.3954H112.169V53.9378H110.739C109.734 55.6177 108.191 57.1449 106.117 58.5113C104.035 59.8857 101.037 60.5689 97.1229 60.5689ZM99.9762 52.1696C103.448 52.1696 106.334 51.0363 108.625 48.7697C110.923 46.503 112.065 43.2719 112.065 39.0682V38.2243C112.065 33.9724 110.932 30.7252 108.665 28.4827C106.398 26.2402 103.497 25.1229 99.9682 25.1229C96.4959 25.1229 93.6024 26.2402 91.2795 28.4827C88.9566 30.7252 87.7912 33.9724 87.7912 38.2243V39.0682C87.7912 43.2639 88.9486 46.503 91.2795 48.7697C93.6104 51.0363 96.504 52.1696 99.9762 52.1696Z" fill="#2D4DE9"/>
<path d="M130.955 13.7817C129.219 13.7817 127.724 13.2111 126.462 12.0617C125.2 10.9123 124.573 9.38516 124.573 7.48024C124.573 5.57532 125.2 4.04817 126.462 2.90682C127.724 1.76548 129.219 1.18677 130.955 1.18677C132.804 1.18677 134.331 1.76548 135.529 2.90682C136.734 4.0562 137.337 5.58335 137.337 7.48024C137.337 9.38516 136.734 10.9123 135.529 12.0617C134.331 13.2111 132.804 13.7817 130.955 13.7817ZM126.173 60.5688V19.0785H135.834V60.5688H126.173Z" fill="#FCD731"/>
<path opacity="0.9" d="M162.006 60.5689C157.859 60.5689 154.154 59.717 150.874 58.0049C147.595 56.301 145.023 53.8656 143.15 50.6987C141.277 47.5319 140.337 43.7381 140.337 39.3174V37.9751C140.337 33.5544 141.277 29.7446 143.15 26.5537C145.023 23.3627 147.603 20.9273 150.874 19.2475C154.154 17.5676 157.859 16.7236 162.006 16.7236C166.146 16.7236 169.843 17.5676 173.09 19.2475C176.337 20.9273 178.901 23.3627 180.774 26.5537C182.647 29.7446 183.587 33.5544 183.587 37.9751V39.3174C183.587 43.7381 182.647 47.5319 180.774 50.6987C178.893 53.8656 176.337 56.301 173.09 58.0049C169.851 59.717 166.154 60.5689 162.006 60.5689ZM162.006 52.0008C165.535 52.0008 168.42 50.8675 170.655 48.6009C172.889 46.3343 174.015 43.1594 174.015 39.0683V38.2243C174.015 34.1412 172.889 30.9583 170.655 28.6917C168.412 26.4251 165.535 25.2918 162.006 25.2918C158.478 25.2918 155.592 26.4251 153.358 28.6917C151.115 30.9583 149.998 34.1412 149.998 38.2243V39.0683C149.998 43.1594 151.115 46.3343 153.358 48.6009C155.592 50.8675 158.478 52.0008 162.006 52.0008Z" fill="#2D4DE9"/>
</g>
</g>
<defs>
<clipPath id="clip0_0_1">
<rect width="1728" height="2171" fill="white" transform="translate(-123 -68)"/>
</clipPath>
<clipPath id="clip1_0_1">
<rect width="183.587" height="59.9688" fill="white" transform="translate(0 0.600098)"/>
</clipPath>
</defs>
</svg>
